# xmcd CD database file
#
# Track frame offsets:
#	182
#	24222
#	39112
#	60712
#	85075
#	105017
#	130940
#	162795
#	187665
#	204100
#	220500
#
# Disc length: 3249 seconds
#
# Revision: 0
# Processed by: cddbd v1.5.1PL0 Copyright (c) Steve Scherf et al.
# Submitted via: CDex 1.51
#
DISCID=6f0caf0b
DTITLE=Rory Gallagher - Calling Card
DYEAR=1976
DGENRE=Blues
TTITLE0=Do You Read Me
TTITLE1=Country Mile
TTITLE2=Moonchild
TTITLE3=Calling Card
TTITLE4=I'll Admit You're Gone
TTITLE5=Secret Agent
TTITLE6=Jack-Knife Beat
TTITLE7=Edged In Blue
TTITLE8=Barley And Grape Rag
TTITLE9=Rue The Ray
TTITLE10=Public Enemy (B-Girl version)
EXTD=YEAR: 1976
EXTT0=
EXTT1=
EXTT2=
EXTT3=
EXTT4=
EXTT5=
EXTT6=
EXTT7=
EXTT8=
EXTT9=
EXTT10=
PLAYORDER=
